<?xml version="1.0" encoding="UTF-8" standalone="no"?>
<!DOCTYPE svg PUBLIC "-//W3C//DTD SVG 1.1//EN" "http://www.w3.org/Graphics/SVG/1.1/DTD/svg11.dtd">
<!-- Generated by Microsoft Visio, SVG Export SimpleRotaryEncoderStateTransitionTable.svg Page-2 -->
<svg
   xmlns="http://www.w3.org/2000/svg"
   xmlns:xlink="http://www.w3.org/1999/xlink"
   xmlns:ev="http://www.w3.org/2001/xml-events"
   width="333.23999" height="186.22482"
   viewBox="0 130 333.23999 186.22482"
   xml:space="preserve"
   color-interpolation-filters="sRGB"
   class="st14"
   >
	<style type="text/css">
	<![CDATA[
		.st1 {fill:#ffffff;stroke:#000000;stroke-linecap:round;stroke-linejoin:round;stroke-width:0.24}
		.st2 {fill:#000000;font-family:Calibri;font-size:0.666664em}
		.st3 {font-size:1em}
		.st4 {marker-end:url(#Transitions_CurvedLine_Arrow);stroke:#000000;stroke-linecap:round;stroke-linejoin:round;stroke-width:0.75}
		.st5 {fill:#000000;fill-opacity:1;stroke:#000000;stroke-opacity:1;stroke-width:0.22935779816514}
		.st6 {fill:#ffffff;stroke:none;stroke-linecap:butt}
		.st8 {fill:#ffffff;stroke:none;stroke-linecap:butt;stroke-width:7.2}
		.st9 {fill:#c00000;font-family:Calibri;font-size:0.666664em}
		.st10 {fill:#000000;font-size:1em}
		.st11 {marker-end:url(#Transitions_StraightLine_Arrow);stroke:#000000;stroke-linecap:round;stroke-linejoin:round;stroke-width:0.75}
		.st12 {marker-end:url(#Transitions_StraightLine_Arrow);stroke:#000000;stroke-dasharray:2.25,2.25;stroke-linecap:round;stroke-linejoin:round;stroke-width:0.75}
		.st13 {fill:#000000;stroke:#000000;stroke-linecap:round;stroke-linejoin:round;stroke-width:0.24}
		.st14 {fill:none;fill-rule:evenodd;font-size:12px;overflow:visible;stroke-linecap:square;stroke-miterlimit:3}
		.stX  {fill:#00FF00;fill-opacity:1;stroke:#000000;stroke-opacity:1;stroke-width:0.22935779816514}
	]]>
	</style>

	<defs id="Markers">
		<g id="lend2">
			<path d="M 1 1 L 0 0 L 1 -1 L 1 1 " style="stroke:none"/>
		</g>
		<marker id="Transitions_CurvedLine_Arrow" class="st5" refX="-3.88" orient="auto" markerUnits="strokeWidth" overflow="visible">
			<use xlink:href="#lend2" transform="scale(-4.36,-4.36) "/>
		</marker>
		<marker id="Transitions_StraightLine_Arrow" class="st5" refX="-4.36" orient="auto" markerUnits="strokeWidth" overflow="visible">
			<use xlink:href="#lend2" transform="scale(-4.36,-4.36) "/>
		</marker>
	</defs>
	<g transform="translate(-31.38,114.5499)">
		<title>Full Step State Diagram</title>
		<g id="group1-1" transform="translate(31.5,-607.5)">
		    <!-- There are seven states in this state machine -->
			<g id="State.Start" transform="translate(0,-63)">
				<rect x="0" y="765" width="45" height="27" class="st1"/>
				<text x="12.28" y="776.1" class="st2">START<tspan x="14.32" dy="1.2em" class="st3">0b11</tspan></text>			</g>
			<g id="State.CW_A" transform="translate(72,-117)">
				<rect x="0" y="765" width="45" height="27" class="st1"/>
				<text x="12.5" y="776.1" class="st2">CW_A<tspan x="14.32" dy="1.2em" class="st3">0b01</tspan></text>			</g>
			<g id="State.CW_B" transform="translate(144,-117)">
				<rect x="0" y="765" width="45" height="27" class="st1"/>
				<text x="12.64" y="776.1" class="st2">CW_B<tspan x="14.32" dy="1.2em" class="st3">0b00</tspan></text>			</g>
			<g id="State.CW_C" transform="translate(216,-117)">
				<rect x="0" y="765" width="45" height="27" class="st1"/>
				<text x="12.68" y="776.1" class="st2">CW_C<tspan x="14.32" dy="1.2em" class="st3">0b10</tspan></text>			</g>
			<g id="State.CCW_A" transform="translate(72,-9.00002)">
				<rect x="0" y="765" width="45" height="27" class="st1"/>
				<text x="10.37" y="776.1" class="st2">CCW_A <tspan x="14.32" dy="1.2em" class="st3">0b10</tspan></text>			</g>
			<g id="State.CCW_B" transform="translate(144,-9)">
				<rect x="0" y="765" width="45" height="27" class="st1"/>
				<text x="10.51" y="776.1" class="st2">CCW_B <tspan x="14.32" dy="1.2em" class="st3">0b00</tspan></text>			</g>
			<g id="State.CCW_C" transform="translate(216,-9.00002)">
				<rect x="0" y="765" width="45" height="27" class="st1"/>
				<text x="10.55" y="776.1" class="st2">CCW_C <tspan x="14.32" dy="1.2em" class="st3">0b01</tspan></text>			</g>
			<!-- There are two event transition states -->
			<g id="Event.CW" transform="translate(288,-117)">
				<path d="M11.25 792 L33.75 792 L45 778.5 L33.75 765 L11.25 765 L0 778.5 L11.25 792 Z" class="st1"/>
				<text x="16.81" y="776.1" class="st2">CW <tspan x="13.31" dy="1.2em" class="st3">Event</tspan></text>			</g>
			<g id="Event.CCW" transform="translate(288,-9.00002)">
				<path d="M11.25 792 L33.75 792 L45 778.5 L33.75 765 L11.25 765 L0 778.5 L11.25 792 Z" class="st1"/>
				<text x="14.68" y="776.1" class="st2">CCW <tspan x="13.31" dy="1.2em" class="st3">Event</tspan></text>			</g>
			<!-- For cleaner diagram, there are three "collectors" that all get back to State.Start -->
			<g id="Transition_Collector.1" transform="translate(162.9,-72.9)">
				<path d="M0 788.4 A3.6 3.6 0 0 1 7.2 788.4 A3.6 3.6 0 1 1 0 788.4 Z" class="st13"/></g>
			<g id="Transition_Collector.2" transform="translate(234.9,-72.9)">
				<path d="M0 788.4 A3.6 3.6 0 0 1 7.2 788.4 A3.6 3.6 0 1 1 0 788.4 Z" class="st13"/></g>
			<g id="Transition_Collector.3" transform="translate(306.9,-72.9)">
				<path d="M0 788.4 A3.6 3.6 0 0 1 7.2 788.4 A3.6 3.6 0 1 1 0 788.4 Z" class="st13"/></g>
			<!-- Transitions .... -->
			<g id="Transition_Start_to_Start" transform="translate(13.5,-81)">
				<path d="M9 783 C26.19 765.81 -7.92 765.68 6.61 780.77 L6.87 781.01" class="st4"/>
				<rect x="-1.01205" y="757.95" width="20.024" height="9.59985" class="st8"/>
				<text x="-1.01" y="765.15" class="st9">00<tspan class="st10">, 11</tspan></text>			</g>
			<g id="Transition_Start_to_CW_A" transform="translate(45,-90)">
				<path d="M0 792 C47.42 792 49.41 792 49.5 768.27 L49.5 767.91" class="st4"/>
				<rect x="30.6133" y="786.223" width="8.10956" height="9.59985" class="st6"/>
				<text x="30.61" y="793.42" class="st2">01</text>			</g>
			<g id="Transition_CW_A_to_CW_A" transform="translate(85.5,-135)">
				<path d="M9 783 C26.19 765.81 -7.92 765.68 6.61 780.77 L6.87 781.01" class="st4"/>
				<rect x="4.94529" y="757.95" width="8.10956" height="9.59985" class="st8"/>
				<text x="4.95" y="765.15" class="st2">01</text>			</g>
			<g id="Transition_CW_A_to_CW_B" transform="translate(117,-121.5)">
				<path d="M0 783 L23.73 783" class="st11"/>
				<rect x="9.44528" y="778.2" width="8.10956" height="9.59985" class="st8"/>
				<text x="9.45" y="785.4" class="st2">00</text>			</g>
			<g id="Transition_CW_A_to_Start" transform="translate(72,-130.5)">
				<path d="M0 792 C-26.25 792 -26.98 792 -27 829.23 L-27 829.59" class="st4"/>
				<rect x="-35.6322" y="797.274" width="20.024" height="9.59985" class="st8"/>
				<text x="-35.63" y="804.47" class="st9">10<tspan class="st10">, 11</tspan></text>			</g>
			<g id="Transition_CW_B_to_CW_C" transform="translate(189,-121.5)">
				<path d="M0 783 L23.73 783" class="st11"/>
				<rect x="9.44529" y="778.2" width="8.10956" height="9.59985" class="st8"/>
				<text x="9.45" y="785.4" class="st2">10</text>			</g>
			<g id="Transition_CW_B_to_CW_B" transform="translate(157.5,-135)">
				<path d="M9 783 C26.19 765.81 -7.92 765.68 6.61 780.77 L6.87 781.01" class="st4"/>
				<rect x="4.9453" y="757.95" width="8.10956" height="9.59985" class="st8"/>
				<text x="4.95" y="765.15" class="st2">00</text>			</g>
			<g id="Transition_CW_B_to_CW_A" transform="translate(144,-135)">
				<path d="M0 783 C0 770.68 -22.5 769.6 -26.42 779.78 L-26.49 780.14" class="st4"/>
				<rect x="-17.5547" y="768.075" width="8.10956" height="9.59985" class="st8"/>
				<text x="-17.55" y="775.28" class="st2">01</text>			</g>
			<g id="Transition_CW_B_to_StartCollector1" transform="translate(157.5,-117)">
				<path d="M9 792 L9 825.63" class="st11"/>
				<rect x="4.94528" y="805.65" width="8.10956" height="9.59985" class="st6"/>
				<text x="4.95" y="812.85" class="st9">11</text>			</g>
			<g id="Transition_CW_C_to_CW_B" transform="translate(216,-153)">
				<path d="M0 801 C0 788.68 -22.5 787.6 -26.42 797.78 L-26.49 798.14" class="st4"/>
				<rect x="-17.5547" y="786.075" width="8.10956" height="9.59985" class="st8"/>
				<text x="-17.55" y="793.28" class="st2">00</text>			</g>
			<g id="Transition_CW_C_to_Event.CW" transform="translate(261,-121.5)">
				<path d="M0 783 L23.73 783" class="st11"/>
				<rect x="9.11601" y="778.2" width="8.10956" height="9.59985" class="st6"/>
				<text x="9.12" y="785.4" class="st2">11</text>			</g>
			<g id="Transition_CW_C_to_CW_C" transform="translate(229.5,-135)">
				<path d="M9 783 C26.19 765.81 -7.92 765.68 6.61 780.77 L6.87 781.01" class="st4"/>
				<rect x="4.94528" y="757.95" width="8.10956" height="9.59985" class="st6"/>
				<text x="4.95" y="765.15" class="st2">10</text>			</g>
			<g id="Transition_CW_C_to_StartCollector2" transform="translate(229.5,-117)">
				<path d="M9 792 L9 825.63" class="st11"/>
				<rect x="4.94528" y="805.65" width="8.10956" height="9.59985" class="st8"/>
				<text x="4.95" y="812.85" class="st9">01</text>			</g>
			<g id="Transition_CCW_A_to_CCW_B" transform="translate(117,-31.5)">
				<path d="M0 801 L23.73 801" class="st11"/>
				<rect x="9.44529" y="796.2" width="8.10956" height="9.59985" class="st8"/>
				<text x="9.45" y="803.4" class="st2">00</text>			</g>
			<g id="Transition_CCW_B_to_CCW_C" transform="translate(189,-13.5)">
				<path d="M0 783 L23.73 783" class="st11"/>
				<rect x="9.44529" y="778.2" width="8.10956" height="9.59985" class="st8"/>
				<text x="9.45" y="785.4" class="st2">01</text>			</g>
			<g id="Transition_CCW_C_to_Event.CCW" transform="translate(261,-13.5)">
				<path d="M0 783 L23.73 783" class="st11"/>
				<rect x="9.11601" y="778.2" width="8.10956" height="9.59985" class="st8"/>
				<text x="9.12" y="785.4" class="st2">11</text>			</g>
			<g id="Transition_CCW_C_to_StartCollector2" transform="translate(247.5,-36)">
				<path d="M-9 792 L-9 758.37" class="st11"/>
				<rect x="-13.0547" y="768.75" width="8.10956" height="9.59985" class="st8"/>
				<text x="-13.05" y="775.95" class="st9">10</text>			</g>
			<g id="Transition_CCW_Start_to_CCW_A" transform="translate(45,-63)">
				<path d="M0 792 C47.42 792 49.41 792 49.5 815.73 L49.5 816.09" class="st4"/>
				<rect x="30.6133" y="788.178" width="8.10956" height="9.59985" class="st8"/>
				<text x="30.61" y="795.38" class="st2">10</text>			</g>
			<g id="Transition_CCW_A_to_Start" transform="translate(72,-22.5)">
				<path d="M0 792 C-26.25 792 -26.98 792 -27 754.77 L-27 754.41" class="st4"/>
				<rect x="-35.6322" y="777.126" width="20.024" height="9.59985" class="st8"/>
				<text x="-35.63" y="784.33" class="st9">01<tspan class="st10">, 11</tspan></text>			</g>
			<g id="Transition_CCW_A_to_CCW_A" transform="translate(85.5,-1.93119E-05)">
				<path d="M 11 783  C27 801  -9 801   8 784.77  L8.5 784" class="st4"/>
				<rect x="4.94528" y="799.575" width="8.10956" height="9.59985" class="st8"/>
				<text x="4.95" y="806.78" class="st2">10</text>			</g>
			<g id="Transition_CCW_B_to_CCW_B" transform="translate(157.5,0)">
				<path d="M 11 783  C27 801  -9 801   8 784.77  L8.5 784" class="st4"/>
				<rect x="4.94528" y="798.45" width="8.10956" height="9.59985" class="st8"/>
				<text x="4.95" y="805.65" class="st2">00</text>			</g>
			<g id="Transition_CCW_C_to_CCW_C" transform="translate(229.5,-1.93119E-05)">
				<path d="M 11 783  C27 801  -9 801   8 784.77  L8.5 784" class="st4"/>
				<rect x="4.94528" y="798.45" width="8.10956" height="9.59985" class="st6"/>
				<text x="4.95" y="805.65" class="st2">01</text>			</g>
			<g id="Transition_CCW_B_to_CCW_A" transform="translate(144,-9.65595E-06)">
				<path d="M0 783 C0 795.32 -22.5 796.4 -26.42 786.22 L-26.49 785.86" class="st4"/>
				<rect x="-17.5547" y="788.325" width="8.10956" height="9.59985" class="st6"/>
				<text x="-17.55" y="795.53" class="st2">10</text>			</g>
			<g id="Transition_CCW_C_to_CCW_B" transform="translate(216,-9.65595E-06)">
				<path d="M0 783 C0 795.32 -22.5 796.4 -26.42 786.22 L-26.49 785.86" class="st4"/>
				<rect x="-17.5547" y="788.325" width="8.10956" height="9.59985" class="st8"/>
				<text x="-17.55" y="795.53" class="st2">00</text>			</g>
			<g id="Transition_CCW_B_to_StartCollector2" transform="translate(175.5,-36)">
				<path d="M-9 792 L-9 758.37" class="st11"/>
				<rect x="-13.0547" y="768.75" width="8.10956" height="9.59985" class="st8"/>
				<text x="-13.05" y="775.95" class="st9">11</text>			</g>
			<!-- Automatic transitions from events and transition collectors -->
			<g id="AutoTransition_StartCollector1_to_Start" transform="translate(162.9,-67.5)">
				<path d="M0 783 L-114.63 783" class="st12"/>			</g>
			<g id="AutoTransition_Event.CW_to_StartCollector3" transform="translate(301.5,-117)">
				<path d="M9 792 L9 825.63" class="st12"/>			</g>
			<g id="AutoTransition_StartCollector3_to_StartCollector2" transform="translate(306.9,-67.5)">
				<path d="M0 783 L-61.53 783" class="st12"/>			</g>
			<g id="AutoTransition_StartCollector2_to_StartCollector1" transform="translate(234.9,-67.5)">
				<path d="M0 783 L-61.53 783" class="st12"/>			</g>
			<g id="AutoTransition_Event.CCW_to_StartCollector3" transform="translate(319.5,-36)">
				<path d="M-9 792 L-9 758.37" class="st12"/>
			</g>
		</g>
	</g>
</svg>
