<?xml version="1.0" encoding="UTF-8" standalone="no"?>
<!DOCTYPE svg PUBLIC "-//W3C//DTD SVG 1.1//EN" "http://www.w3.org/Graphics/SVG/1.1/DTD/svg11.dtd">
<!-- Generated by Microsoft Visio, SVG Export SimpleRotaryEncoderStateTransitionTable.svg Page-3 -->
<svg
	xmlns="http://www.w3.org/2000/svg"
	xmlns:xlink="http://www.w3.org/1999/xlink"
	xmlns:ev="http://www.w3.org/2001/xml-events"
	viewBox="0 0 333.23998 186.22485"
	height="2.5864563in" width="4.6283331in"
	xml:space="preserve"
	color-interpolation-filters="sRGB"
	class="st13"
	>

	<style type="text/css">
	<![CDATA[
		.st1 {fill:#ffffff;stroke:#000000;stroke-linecap:round;stroke-linejoin:round;stroke-width:0.24}
		.st2 {fill:#000000;font-family:Calibri;font-size:0.666664em}
		.st3 {font-size:1em}
		.st4 {marker-end:url(#mrkr2-17);stroke:#000000;stroke-linecap:round;stroke-linejoin:round;stroke-width:0.75}
		.st5 {fill:#000000;fill-opacity:1;stroke:#000000;stroke-opacity:1;stroke-width:0.22935779816514}
		.st6 {fill:#ffffff;stroke:none;stroke-linecap:butt}
		.st7 {fill:#ffffff;stroke:none;stroke-linecap:butt;stroke-width:7.2}
		.st8 {fill:#c00000;font-family:Calibri;font-size:0.666664em}
		.st9 {fill:#000000;font-size:1em}
		.st10 {marker-end:url(#mrkr2-50);stroke:#000000;stroke-linecap:round;stroke-linejoin:round;stroke-width:0.75}
		.st11 {marker-end:url(#mrkr2-73);stroke:#000000;stroke-linecap:round;stroke-linejoin:round;stroke-width:0.75}
		.st12 {marker-end:url(#mrkr2-50);stroke:#000000;stroke-dasharray:2.25,2.25;stroke-linecap:round;stroke-linejoin:round;stroke-width:0.75}
		.st13 {fill:none;fill-rule:evenodd;font-size:12px;overflow:visible;stroke-linecap:square;stroke-miterlimit:3}
	]]>
	</style>

	<defs id="Markers">
		<g id="lend2">
			<path d="M 1 1 L 0 0 L 1 -1 L 1 1 " style="stroke:none"/>
		</g>
		<marker id="mrkr2-17" class="st5" refX="-3.88" orient="auto" markerUnits="strokeWidth" overflow="visible">
			<use xlink:href="#lend2" transform="scale(-4.36,-4.36) "/>
		</marker>
		<marker id="mrkr2-50" class="st5" refX="-4.36" orient="auto" markerUnits="strokeWidth" overflow="visible">
			<use xlink:href="#lend2" transform="scale(-4.36,-4.36) "/>
		</marker>
		<marker id="mrkr2-73" class="st5" refX="-0" orient="auto" markerUnits="strokeWidth" overflow="visible">
			<use xlink:href="#lend2" transform="scale(-4.36,-4.36) "/>
		</marker>
	</defs>
	<g transform="translate(-31.38,-24.450012)">
		<title>Half Step State Diagram</title>
		<g id="group1-1" transform="translate(31.5,-598.5)">
			<!-- There are six states in this state machine -->
			<g id="State.Start" transform="translate(0,-63)">
				<rect x="0" y="765" width="45" height="27" class="st1"/>
				<text x="12.28" y="780.9" class="st2">START</text>			</g>
			<g id="State.Mid" transform="translate(144,-63)">
				<rect x="0" y="765" width="45" height="27" class="st1"/>
				<text x="16.81" y="780.9" class="st2">MID</text>			</g>
			<g id="State.CW_A" transform="translate(72,-117)">
				<rect x="0" y="765" width="45" height="27" class="st1"/>
				<text x="14.81" y="780.9" class="st2">CW A</text>			</g>
			<g id="State.CW_C" transform="translate(216,-117)">
				<rect x="0" y="765" width="45" height="27" class="st1"/>
				<text x="14.81" y="780.9" class="st2">CW C</text>			</g>
			<g id="State.CCW_A" transform="translate(72,-9.00002)">
				<rect x="0" y="765" width="45" height="27" class="st1"/>
				<text x="12.68" y="780.9" class="st2">CCW A</text>			</g>
			<g id="State.CCW_C" transform="translate(216,-9)">
				<rect x="0" y="765" width="45" height="27" class="st1"/>
				<text x="12.68" y="780.9" class="st2">CCW C</text>			</g>
			<!-- There are four pass-through event states (go to either Start or Mid) -->
			<g id="Event.CW_A" transform="translate(144,-117)">
				<path d="M11.25 792 L33.75 792 L45 778.5 L33.75 765 L11.25 765 L0 778.5 L11.25 792 Z" class="st1"/>
				<text x="16.81" y="776.1" class="st2">CW<tspan x="13.31" dy="1.2em" class="st3">Event</tspan></text>			</g>
			<g id="Event.CW_C" transform="translate(288,-117)">
				<path d="M11.25 792 L33.75 792 L45 778.5 L33.75 765 L11.25 765 L0 778.5 L11.25 792 Z" class="st1"/>
				<text x="16.81" y="776.1" class="st2">CW<tspan x="13.31" dy="1.2em" class="st3">Event</tspan></text>			</g>
			<g id="Event.CCW_A" transform="translate(144,-9)">
				<path d="M11.25 792 L33.75 792 L45 778.5 L33.75 765 L11.25 765 L0 778.5 L11.25 792 Z" class="st1"/>
				<text x="14.68" y="776.1" class="st2">CCW<tspan x="13.31" dy="1.2em" class="st3">Event</tspan></text>			</g>
			<g id="Event.CCW_B" transform="translate(288,-9.00001)">
				<path d="M11.25 792 L33.75 792 L45 778.5 L33.75 765 L11.25 765 L0 778.5 L11.25 792 Z" class="st1"/>
				<text x="14.68" y="776.1" class="st2">CCW <tspan x="13.31" dy="1.2em" class="st3">Event</tspan></text>			</g>
			<!-- For cleaner diagram, one reference to allow start state access from far-right of diagram -->
			<g id="Reference.S1" transform="translate(18,-36)">
				<path d="M0 787.5 A4.5 4.5 0 0 1 9 787.5 A4.5 4.5 0 1 1 0 787.5 Z" class="st1"/>
				<text x="2.66" y="789.9" class="st2">S</text>			</g>
			<g id="Reference.S2" transform="translate(306,-65.25)">
				<path d="M0 787.5 A4.5 4.5 0 0 1 9 787.5 A4.5 4.5 0 1 1 0 787.5 Z" class="st1"/>
				<text x="2.66" y="789.9" class="st2">S</text>			</g>
			<!-- Transitions .... -->
			<g id="Transition_Start_to_CW_A" transform="translate(45,-90)">
				<path d="M0 792 C47.42 792 49.41 792 49.5 768.27 L49.5 767.91" class="st4"/>
				<rect x="30.6133" y="786.223" width="8.10956" height="9.59985" class="st6"/>
				<text x="30.61" y="793.42" class="st2">01</text>			</g>
			<g id="Transition_Start_to_Start" transform="translate(13.5,-81)">
				<path d="M9 783 C19.34 772.66 1.16 771.82 6.9 780.49 L7.13 780.77" class="st4"/>
				<rect x="4.94529" y="764.7" width="8.10956" height="9.59985" class="st7"/>
				<text x="4.95" y="771.9" class="st2">11</text>			</g>
			<g id="Transition_CW_A_to_CW_A" transform="translate(85.5,-135)">
				<path d="M9 783 C26.19 765.81 -7.92 765.68 6.61 780.77 L6.87 781.01" class="st4"/>
				<rect x="4.94529" y="757.95" width="8.10956" height="9.59985" class="st7"/>
				<text x="4.95" y="765.15" class="st2">01</text>			</g>
			<g id="Transition_CW_A_to_Start" transform="translate(72,-130.5)">
				<path d="M0 792 C-26.25 792 -26.98 792 -27 829.23 L-27 829.59" class="st4"/>
				<rect x="-34.7277" y="797.274" width="18.2153" height="9.59985" class="st6"/>
				<text x="-34.73" y="804.47" class="st8">10<tspan class="st9">,11</tspan></text>			</g>
			<g id="Transition_CCW_A_to_Event.CCW" transform="translate(117,-31.5)">
				<path d="M0 801 L23.73 801" class="st10"/>
				<rect x="9.44529" y="796.2" width="8.10956" height="9.59985" class="st7"/>
				<text x="9.45" y="803.4" class="st2">00</text>			</g>
			<g id="Transition_Start_to_CCW_A" transform="translate(45,-63)">
				<path d="M0 792 C47.42 792 49.41 792 49.5 815.73 L49.5 816.09" class="st4"/>
				<rect x="30.6133" y="788.178" width="8.10956" height="9.59985" class="st7"/>
				<text x="30.61" y="795.38" class="st2">10</text>			</g>
			<g id="Transition_CCW_A_to_Start" transform="translate(72,-22.5)">
				<path d="M0 792 C-26.25 792 -26.98 792 -27 754.77 L-27 754.41" class="st4"/>
				<rect x="-34.7277" y="777.126" width="18.2153" height="9.59985" class="st7"/>
				<text x="-34.73" y="784.33" class="st8">01<tspan class="st9">,11</tspan></text>			</g>
			<g id="Transition_CCW_A_to_CCW_A" transform="translate(85.5,-2.18868E-05)">
				<path d="M9 783 C27 801 -9 801 9 783" class="st11"/>
				<rect x="4.94528" y="799.575" width="8.10956" height="9.59985" class="st7"/>
				<text x="4.95" y="806.78" class="st2">10</text>			</g>
			<g id="Transition_Start_to_Mid" transform="translate(45,-60.75)">
				<path d="M0 783 L95.73 783" class="st10"/>
				<rect x="45.4453" y="778.2" width="8.10956" height="9.59985" class="st7"/>
				<text x="45.45" y="785.4" class="st8">00</text>			</g>
			<g id="Transition_CW_A_to_Event.CW" transform="translate(117,-121.5)">
				<path d="M0 783 L23.73 783" class="st10"/>
				<rect x="9.11602" y="778.2" width="8.10956" height="9.59985" class="st7"/>
				<text x="9.12" y="785.4" class="st2">00</text>			</g>
			<g id="Transition_Mid_to_Start" transform="translate(189,-60.75)">
				<path d="M0 783 L113.73 783" class="st10"/>
				<rect x="54.4453" y="778.2" width="8.10956" height="9.59985" class="st7"/>
				<text x="54.45" y="785.4" class="st8">11</text>			</g>
			<g id="Transition_CW_C_to_CW_C" transform="translate(229.5,-135)">
				<path d="M9 783 C26.19 765.81 -7.92 765.68 6.61 780.77 L6.87 781.01" class="st4"/>
				<rect x="4.94529" y="757.95" width="8.10956" height="9.59985" class="st7"/>
				<text x="4.95" y="765.15" class="st2">10</text>			</g>
			<g id="Transition_CW_C_to_Event.CW" transform="translate(261,-139.5)">
				<path d="M0 801 L23.73 801" class="st10"/>
				<rect x="9.11601" y="796.2" width="8.10956" height="9.59985" class="st6"/>
				<text x="9.12" y="803.4" class="st2">11</text>			</g>
			<g id="Transition_Mid_to_CW_C" transform="translate(189,-90)">
				<path d="M0 792 C47.42 792 49.41 792 49.5 768.27 L49.5 767.91" class="st4"/>
				<rect x="30.6133" y="786.223" width="8.10956" height="9.59985" class="st7"/>
				<text x="30.61" y="793.42" class="st2">10</text>			</g>
			<g id="Transition_Mid_to_Mid" transform="translate(135,-74.25)">
				<path d="M9 783 C-9 801 -9 765 9 783" class="st11"/>
				<rect x="-15.1993" y="780.506" width="8.10956" height="9.59985" class="st7"/>
				<text x="-15.2" y="787.71" class="st2">00</text>			</g>
			<g id="Transition_CCW_C_to_Event.CCW" transform="translate(261,-13.5)">
				<path d="M0 783 L23.73 783" class="st10"/>
				<rect x="9.11602" y="778.2" width="8.10956" height="9.59985" class="st7"/>
				<text x="9.12" y="785.4" class="st2">11</text>			</g>
			<g id="Transition_Mid_to_CCW_C" transform="translate(189,-63)">
				<path d="M0 792 C47.42 792 49.41 792 49.5 815.73 L49.5 816.09" class="st4"/>
				<rect x="30.6133" y="788.178" width="8.10956" height="9.59985" class="st7"/>
				<text x="30.61" y="795.38" class="st2">01</text>			</g>
			<g id="Transition_CW_C_to_Mid" transform="translate(216,-130.5)">
				<path d="M0 792 C-26.25 792 -26.98 792 -27 829.23 L-27 829.59" class="st4"/>
				<rect x="-27.1076" y="800.7" width="18.2153" height="9.59985" class="st7"/>
				<text x="-27.11" y="807.9" class="st8">01<tspan class="st9">,00</tspan></text>			</g>
			<g id="Transition_CCW_C_to_Mid" transform="translate(216,-22.5)">
				<path d="M0 792 C-26.25 792 -26.98 792 -27 754.77 L-27 754.41" class="st4"/>
				<rect x="-27.1076" y="773.7" width="18.2153" height="9.59985" class="st6"/>
				<text x="-27.11" y="780.9" class="st8">10<tspan class="st9">,00</tspan></text>			</g>
			<g id="Transition_CCW_C_to_CCW_C" transform="translate(229.5,0)">
				<path d="M9 783 C27 801 -9 801 9 783" class="st11"/>
				<rect x="4.94528" y="799.575" width="8.10956" height="9.59985" class="st6"/>
				<text x="4.95" y="806.78" class="st2">01</text>			</g>
			<!-- Automatic transitions from events or references -->
			<g id="AutoTransition_Event.CW_to_Mid" transform="translate(175.5,-117)">
				<path d="M-9 792 L-9 815.73" class="st12"/>			</g>
			<g id="AutoTransition_Event.CW_to_Reference.S2" transform="translate(319.5,-117)">
				<path d="M-9 792 L-9 831.48" class="st12"/>			</g>
			<g id="AutoTransition_Event.CCW_to_Mid" transform="translate(175.5,-36)">
				<path d="M-9 792 L-9 768.27" class="st12"/>			</g>
			<g id="AutoTransition_Event.CCW_to_Reference.S2" transform="translate(319.5,-36)">
				<path d="M-9 792 L-9 766.02" class="st12"/>			</g>
			<g id="AutoTransition_Reference.S1_to_Start" transform="translate(13.5,-45)">
				<path d="M9 792 L9 777.27" class="st12"/>			</g>
		</g>
	</g>
</svg>
